# xmcd
#
# Track frame offsets: 
#        150
#        17430
#        36927
#        55004
#        72883
#        88744
#        107448
#        124485
#        141126
#        157690
#        176327
#        189608
#
# Disc length: 2719 seconds
#
# Revision: 0
# Processed by: cddbd v1.5.2PL0 Copyright (c) Steve Scherf et al.
# Submitted via: ExactAudioCopy v1.3
#
DISCID=950a9d0c
DTITLE=Terri Clark - Honky Tonk Songs
DYEAR=2005
DGENRE=Country
TTITLE0=Honky Tonk Song
TTITLE1=I Wish Hed Been Drinkin Whiskey
TTITLE2=Damn Right (Im Gonna Miss You)
TTITLE3=The World Needs A Drink
TTITLE4=Cowboy Days
TTITLE5=Travelin Soul
TTITLE6=Bigger Windows
TTITLE7=Everybodys Gotta Go Sometime
TTITLE8=You Gotta Love That
TTITLE9=Slow News Day
TTITLE10=Tear It All Down
TTITLE11=Last Good Time
EXTD=
EXTT0=
EXTT1=
EXTT2=
EXTT3=
EXTT4=
EXTT5=
EXTT6=
EXTT7=
EXTT8=
EXTT9=
EXTT10=
EXTT11=
PLAYORDER=
